<mxfile host="app.diagrams.net" modified="2020-10-08T13:38:24.723Z" agent="5.0 (Windows)" etag="xkGPBwatnHEKiLoieLrK" version="13.7.8" type="github">
  <diagram id="R2lEEEUBdFMjLlhIrx00" name="Page-1">
    <mxGraphModel dx="1110" dy="640" grid="1" gridSize="10" guides="1" tooltips="1" connect="1" arrows="1" fold="1" page="1" pageScale="1" pageWidth="850" pageHeight="1100" math="0" shadow="0" extFonts="Permanent Marker^https://fonts.googleapis.com/css?family=Permanent+Marker">
      <root>
        <mxCell id="0" />
        <mxCell id="1" parent="0" />
        <mxCell id="TzppmbfCBTdr1uhWKfh8-1" value="FIRM" style="rounded=0;whiteSpace=wrap;html=1;" vertex="1" parent="1">
          <mxGeometry x="350" y="20" width="120" height="60" as="geometry" />
        </mxCell>
        <mxCell id="TzppmbfCBTdr1uhWKfh8-2" value="&lt;div&gt;OFFICES&lt;/div&gt;&lt;div&gt;&lt;u&gt;&lt;b&gt;Office No&lt;/b&gt;&lt;/u&gt;&lt;/div&gt;&lt;div&gt;Address&lt;/div&gt;&lt;div&gt;Description&lt;br&gt;&lt;/div&gt;" style="rounded=0;whiteSpace=wrap;html=1;" vertex="1" parent="1">
          <mxGeometry x="350" y="180" width="120" height="110" as="geometry" />
        </mxCell>
        <mxCell id="TzppmbfCBTdr1uhWKfh8-3" value="&lt;div&gt;HOUSE LISTING&lt;br&gt;&lt;/div&gt;&lt;div&gt;Address&lt;/div&gt;&lt;div&gt;Area&lt;/div&gt;&lt;div&gt;Details (number of rooms, number of bathrooms)&lt;/div&gt;&lt;div&gt;[CurrentAssignedAgent]&lt;br&gt;&lt;/div&gt;&lt;div&gt;{PastAssignedAgents}&lt;br&gt;&lt;/div&gt;" style="rounded=0;whiteSpace=wrap;html=1;" vertex="1" parent="1">
          <mxGeometry x="620" y="128.75" width="160" height="212.5" as="geometry" />
        </mxCell>
        <mxCell id="TzppmbfCBTdr1uhWKfh8-4" value="&lt;div&gt;SALE AGENT&lt;/div&gt;&lt;div&gt;&lt;u&gt;&lt;b&gt;EmployeeID&lt;/b&gt;&lt;/u&gt;&lt;/div&gt;&lt;div&gt;EmployeeName(...)&lt;/div&gt;&lt;div&gt;Salary(...)&lt;br&gt;&lt;/div&gt;" style="rounded=0;whiteSpace=wrap;html=1;" vertex="1" parent="1">
          <mxGeometry x="350" y="400" width="120" height="140" as="geometry" />
        </mxCell>
        <mxCell id="TzppmbfCBTdr1uhWKfh8-5" value="PHYSICAL DESK" style="rounded=0;whiteSpace=wrap;html=1;" vertex="1" parent="1">
          <mxGeometry x="60" y="205" width="120" height="60" as="geometry" />
        </mxCell>
        <mxCell id="TzppmbfCBTdr1uhWKfh8-6" value="" style="endArrow=ERmany;html=1;entryX=0.5;entryY=0;entryDx=0;entryDy=0;endFill=0;exitX=0.5;exitY=1;exitDx=0;exitDy=0;" edge="1" parent="1" source="TzppmbfCBTdr1uhWKfh8-1" target="TzppmbfCBTdr1uhWKfh8-2">
          <mxGeometry width="50" height="50" relative="1" as="geometry">
            <mxPoint x="340" y="150" as="sourcePoint" />
            <mxPoint x="450" y="190" as="targetPoint" />
          </mxGeometry>
        </mxCell>
        <mxCell id="TzppmbfCBTdr1uhWKfh8-9" value="" style="endArrow=ERzeroToMany;html=1;exitX=1;exitY=0.5;exitDx=0;exitDy=0;entryX=0;entryY=0.5;entryDx=0;entryDy=0;startArrow=ERmandOne;startFill=0;endFill=1;" edge="1" parent="1" source="TzppmbfCBTdr1uhWKfh8-2" target="TzppmbfCBTdr1uhWKfh8-3">
          <mxGeometry width="50" height="50" relative="1" as="geometry">
            <mxPoint x="500" y="250" as="sourcePoint" />
            <mxPoint x="550" y="200" as="targetPoint" />
          </mxGeometry>
        </mxCell>
        <mxCell id="TzppmbfCBTdr1uhWKfh8-10" value="" style="endArrow=ERzeroToMany;html=1;exitX=1;exitY=0.5;exitDx=0;exitDy=0;entryX=0.5;entryY=1;entryDx=0;entryDy=0;startArrow=ERmandOne;startFill=0;endFill=1;" edge="1" parent="1" source="TzppmbfCBTdr1uhWKfh8-4" target="TzppmbfCBTdr1uhWKfh8-3">
          <mxGeometry width="50" height="50" relative="1" as="geometry">
            <mxPoint x="570" y="410" as="sourcePoint" />
            <mxPoint x="620" y="360" as="targetPoint" />
            <Array as="points">
              <mxPoint x="700" y="470" />
            </Array>
          </mxGeometry>
        </mxCell>
        <mxCell id="TzppmbfCBTdr1uhWKfh8-11" value="" style="endArrow=ERmandOne;html=1;exitX=0;exitY=0.5;exitDx=0;exitDy=0;entryX=0.5;entryY=1;entryDx=0;entryDy=0;startArrow=ERmandOne;startFill=0;endFill=0;" edge="1" parent="1" source="TzppmbfCBTdr1uhWKfh8-4" target="TzppmbfCBTdr1uhWKfh8-5">
          <mxGeometry width="50" height="50" relative="1" as="geometry">
            <mxPoint x="260" y="370" as="sourcePoint" />
            <mxPoint x="310" y="320" as="targetPoint" />
            <Array as="points">
              <mxPoint x="120" y="470" />
            </Array>
          </mxGeometry>
        </mxCell>
        <mxCell id="TzppmbfCBTdr1uhWKfh8-12" value="" style="endArrow=ERoneToMany;html=1;exitX=0.5;exitY=1;exitDx=0;exitDy=0;entryX=0.5;entryY=0;entryDx=0;entryDy=0;startArrow=ERmandOne;startFill=0;endFill=0;" edge="1" parent="1" source="TzppmbfCBTdr1uhWKfh8-2" target="TzppmbfCBTdr1uhWKfh8-4">
          <mxGeometry width="50" height="50" relative="1" as="geometry">
            <mxPoint x="400" y="330" as="sourcePoint" />
            <mxPoint x="450" y="280" as="targetPoint" />
          </mxGeometry>
        </mxCell>
        <mxCell id="TzppmbfCBTdr1uhWKfh8-13" value="has" style="text;html=1;strokeColor=none;fillColor=none;align=center;verticalAlign=middle;whiteSpace=wrap;rounded=0;" vertex="1" parent="1">
          <mxGeometry x="405" y="108.75" width="40" height="20" as="geometry" />
        </mxCell>
        <mxCell id="TzppmbfCBTdr1uhWKfh8-15" value="offers" style="text;html=1;strokeColor=none;fillColor=none;align=center;verticalAlign=middle;whiteSpace=wrap;rounded=0;" vertex="1" parent="1">
          <mxGeometry x="470" y="205" width="40" height="20" as="geometry" />
        </mxCell>
        <mxCell id="TzppmbfCBTdr1uhWKfh8-17" value="Employed" style="text;html=1;strokeColor=none;fillColor=none;align=center;verticalAlign=middle;whiteSpace=wrap;rounded=0;" vertex="1" parent="1">
          <mxGeometry x="420" y="370" width="40" height="20" as="geometry" />
        </mxCell>
        <mxCell id="TzppmbfCBTdr1uhWKfh8-18" value="sell" style="text;html=1;strokeColor=none;fillColor=none;align=center;verticalAlign=middle;whiteSpace=wrap;rounded=0;" vertex="1" parent="1">
          <mxGeometry x="480" y="450" width="40" height="20" as="geometry" />
        </mxCell>
        <mxCell id="TzppmbfCBTdr1uhWKfh8-19" value="works on" style="text;html=1;strokeColor=none;fillColor=none;align=center;verticalAlign=middle;whiteSpace=wrap;rounded=0;" vertex="1" parent="1">
          <mxGeometry x="270" y="450" width="60" height="20" as="geometry" />
        </mxCell>
        <mxCell id="TzppmbfCBTdr1uhWKfh8-20" value="listed" style="text;html=1;strokeColor=none;fillColor=none;align=center;verticalAlign=middle;whiteSpace=wrap;rounded=0;" vertex="1" parent="1">
          <mxGeometry x="570" y="205" width="40" height="20" as="geometry" />
        </mxCell>
        <mxCell id="TzppmbfCBTdr1uhWKfh8-21" value="sold by" style="text;html=1;strokeColor=none;fillColor=none;align=center;verticalAlign=middle;whiteSpace=wrap;rounded=0;" vertex="1" parent="1">
          <mxGeometry x="740" y="350" width="50" height="20" as="geometry" />
        </mxCell>
        <mxCell id="TzppmbfCBTdr1uhWKfh8-22" value="used by" style="text;html=1;strokeColor=none;fillColor=none;align=center;verticalAlign=middle;whiteSpace=wrap;rounded=0;" vertex="1" parent="1">
          <mxGeometry x="120" y="270" width="60" height="20" as="geometry" />
        </mxCell>
        <mxCell id="TzppmbfCBTdr1uhWKfh8-23" value="has" style="text;html=1;strokeColor=none;fillColor=none;align=center;verticalAlign=middle;whiteSpace=wrap;rounded=0;" vertex="1" parent="1">
          <mxGeometry x="420" y="290" width="40" height="20" as="geometry" />
        </mxCell>
        <mxCell id="TzppmbfCBTdr1uhWKfh8-89" value="" style="endArrow=none;dashed=1;html=1;exitX=0.5;exitY=0;exitDx=0;exitDy=0;" edge="1" parent="1" source="TzppmbfCBTdr1uhWKfh8-90">
          <mxGeometry width="50" height="50" relative="1" as="geometry">
            <mxPoint x="630" y="540" as="sourcePoint" />
            <mxPoint x="630" y="470" as="targetPoint" />
          </mxGeometry>
        </mxCell>
        <mxCell id="TzppmbfCBTdr1uhWKfh8-90" value="House Comission" style="rounded=0;whiteSpace=wrap;html=1;" vertex="1" parent="1">
          <mxGeometry x="570" y="560" width="120" height="60" as="geometry" />
        </mxCell>
        <mxCell id="TzppmbfCBTdr1uhWKfh8-91" value="varies with different house owner" style="text;html=1;strokeColor=none;fillColor=none;align=center;verticalAlign=middle;whiteSpace=wrap;rounded=0;rotation=0;" vertex="1" parent="1">
          <mxGeometry x="630" y="510" width="80" height="20" as="geometry" />
        </mxCell>
      </root>
    </mxGraphModel>
  </diagram>
</mxfile>
